<svg xmlns="http://www.w3.org/2000/svg" fill="none" viewBox="0 0 20 20"><g fill="#AFB1B8" clip-path="url(#a)"><path d="M19.995 20v-.0008H20v-7.335c0-3.5883-.7725-6.3525-4.9675-6.3525-2.0167 0-3.37 1.1067-3.9225 2.1558h-.0583V6.6467H7.0742v13.3525h4.1416v-6.6117c0-1.7408.33-3.4241 2.4859-3.4241 2.1241 0 2.1558 1.9866 2.1558 3.5358V20h4.1375ZM.33 6.6475h4.1467V20H.33V6.6475ZM2.4017 0C1.0758 0 0 1.0758 0 2.4017c0 1.3258 1.0758 2.4241 2.4017 2.4241 1.3258 0 2.4016-1.0983 2.4016-2.4241C4.8025 1.0758 3.7267 0 2.4017 0Z"/></g><defs><clipPath id="a"><path fill="#fff" d="M0 0h20v20H0z"/></clipPath></defs></svg>